<svg id="Layer_1" data-name="Layer 1" xmlns="http://www.w3.org/2000/svg" width="290.78" height="127.22" viewBox="0 0 290.78 127.22"><defs><style>.cls-1{fill:#f0f0ee;}</style></defs><path class="cls-1" d="M17.77,14.32A15.85,15.85,0,0,1,21.82,14a41.81,41.81,0,0,1,7.82.65,20.24,20.24,0,0,1,8,3.72,27.9,27.9,0,0,1,6.79,7.09,26.87,26.87,0,0,1,3.08,5.93,19.17,19.17,0,0,1,1,5.89v.55a19.73,19.73,0,0,1-1.43,7,22.63,22.63,0,0,1-6.05,9,17.14,17.14,0,0,1-8.85,4.21c-.74.12-3.38.22-7.92.28h-2a23,23,0,0,1-4.35-.25,3.8,3.8,0,0,1-1.82-1.27c-.89-1-1.33-2.81-1.33-5.38q0-2,.37-5.8.45-5,.46-12.28a100.38,100.38,0,0,0-.46-11.18,25.48,25.48,0,0,1-.33-3.26,7,7,0,0,1,.14-1.34A4.08,4.08,0,0,1,17.77,14.32Zm12,20c-.64-.65-1.14-1-1.47-1s-.51.06-.51.18.38.65,1.15,1.38L30.1,36,29,37.18c-.7.7-1.05,1.24-1.05,1.61a.42.42,0,0,0,.23.37h0q.38,0,1.38-1.11l1.15-1.24L32,38c.61.61,1.06.92,1.33.92a.2.2,0,0,0,.14,0,.26.26,0,0,0,.09-.18c0-.25-.31-.69-.92-1.34l-1.1-1.24,1.24-1.24c.64-.68,1-1.09,1-1.24a.26.26,0,0,0-.14-.19h-.09a2.86,2.86,0,0,0-1.38.83,4.7,4.7,0,0,1-1.25,1C30.76,35.25,30.39,34.94,29.78,34.33Zm3.77-15.92a13.43,13.43,0,0,0-2.8-.69c-.25,0-.37.06-.37.18s.63.59,1.88,1.29a22.23,22.23,0,0,1,5.52,5c.77.95,1.48,1.42,2.12,1.42a1.3,1.3,0,0,0,.55-.09c.55-.24.83-.57.83-1,0-.64-.55-1.5-1.66-2.57A15.9,15.9,0,0,0,33.55,18.41Z"/><path class="cls-1" d="M56.46,15.19A6.3,6.3,0,0,1,58.35,15a9.72,9.72,0,0,1,3.35.58,3.34,3.34,0,0,1,2,1.44c.43.92.76,4.13,1,9.62.06,1.26.09,3.49.09,6.71Q64.83,49,64,54.84a4.31,4.31,0,0,1-.64,2,4.9,4.9,0,0,1-1.8,1.19,8.93,8.93,0,0,1-3.35.55,6,6,0,0,1-2.53-.41,3.31,3.31,0,0,1-.9-.62,3,3,0,0,1-.62-1.27,14.82,14.82,0,0,1-.44-2c-.11-.74-.2-1.88-.27-3.43s-.13-3.19-.16-4.92-.07-4.07-.1-7c0-1.48,0-3.51,0-6.12q0-11.6.69-14.81A3.51,3.51,0,0,1,56.46,15.19Zm5.47,2a3.33,3.33,0,0,0-.92-.53,2.56,2.56,0,0,0-.87-.25c-.09,0-.14,0-.14.09s.28.31.83.64A4.67,4.67,0,0,1,62.3,18.5c.34.49.57.74.69.74a0,0,0,0,0,0,0,2.93,2.93,0,0,0-.37-1A3.51,3.51,0,0,0,61.93,17.17Z"/><path class="cls-1" d="M73.25,16.29c.49-.09,3.69-.16,9.61-.23h1.47a83.54,83.54,0,0,1,11.83.56,9.66,9.66,0,0,1,5.1,2.2,6.69,6.69,0,0,1,1.59,2,5.49,5.49,0,0,1,.44,2.32v.73a14.45,14.45,0,0,1-.19,1.71,1.87,1.87,0,0,1-.55.87,2.57,2.57,0,0,1-.8.6,3.37,3.37,0,0,1-1.13.14,17.9,17.9,0,0,1-4.1-.74,29.83,29.83,0,0,0-7.4-.92c-.74,0-2,.06-3.68.18q-4.69.42-6.4,2.21l-.46.46a2,2,0,0,0-.25.39,1.52,1.52,0,0,0-.18.67c0,.25,0,.58,0,1s.08,2.39.23,5.52c0,.62.05,1.46.05,2.53a39,39,0,0,1-.18,4.1c-.13,1.35-.19,2-.19,2.11a3.47,3.47,0,0,0,.37,1.38,2.25,2.25,0,0,0,1.33,1.2,24.3,24.3,0,0,0,5.43.37A14.48,14.48,0,0,0,89,47.39a6.22,6.22,0,0,0,3.91-4.6A4.83,4.83,0,0,0,93,41.64c0-1.44-.29-2.31-.88-2.62a.69.69,0,0,0-.27-.09c-.25,0-.84.47-1.8,1.42a10.06,10.06,0,0,1-2.43,1.89,4.82,4.82,0,0,1-1.8.32A4.16,4.16,0,0,1,82.22,41a5.69,5.69,0,0,1-.55-3.08,8.18,8.18,0,0,1,.55-3.41,6.8,6.8,0,0,1,1.31-1.86,3.81,3.81,0,0,1,1.45-1,29.42,29.42,0,0,1,5.52-.32c5.73,0,9.17.25,10.3.74a.12.12,0,0,1,.09,0,1.59,1.59,0,0,1,1,.88,55.1,55.1,0,0,1,.32,7.82v4.37a47.73,47.73,0,0,1-.25,6,13.51,13.51,0,0,1-1.36,3.7,6.27,6.27,0,0,1-2.26,2.74,7.7,7.7,0,0,1-3.81.75c-.89,0-1.9,0-3-.13q-3.18-.28-11-.37l-3.66,0-3,0H72.6a2.67,2.67,0,0,1-1.58-1,5.77,5.77,0,0,1-1.27-2,11.88,11.88,0,0,1-.27-3.13c0-2.08.15-5.89.46-11.41.15-2.6.23-5.72.23-9.34q.09-10,.69-12a4.67,4.67,0,0,1,1-1.77A2.83,2.83,0,0,1,73.25,16.29ZM88.66,39.34a2,2,0,0,1-.88.18,3.68,3.68,0,0,1-2.53-1.28q-.82-.56-.87-.33c0,.4.35.92,1.06,1.57a4,4,0,0,0,1.84,1.1,1.37,1.37,0,0,0,.41.05c1,0,1.6-.34,1.84-1,0-.13.06-.23.07-.3s0-.13-.09-.14a.74.74,0,0,0-.32,0ZM100.48,52a1,1,0,0,0-.09-.53c-.06-.08-.25-.12-.55-.12a1.14,1.14,0,0,0-.9.39,9.63,9.63,0,0,0-1,1.82,4.41,4.41,0,0,1-1.74,2,8.94,8.94,0,0,1-3.22.92c-.68.09-1,.2-1,.32s.62.28,1.84.28a6.9,6.9,0,0,0,4.47-1.48,7.7,7.7,0,0,0,1.56-1.84A3.63,3.63,0,0,0,100.48,52Zm-2.16-33.4a4.45,4.45,0,0,0-1.52-.46c-.09,0-.14,0-.14.09s.14.2.42.32a10.36,10.36,0,0,1,3.86,3.73c.58.92,1,1.38,1.1,1.38s.1-.05.1-.14a.45.45,0,0,1,0-.14,1.05,1.05,0,0,0,0-.13A4.29,4.29,0,0,0,101,20.78,7.73,7.73,0,0,0,98.32,18.64Z"/><path class="cls-1" d="M111.34,15.19a6.19,6.19,0,0,1,1.93-.28,7.83,7.83,0,0,1,3.63.83,4.11,4.11,0,0,1,1.59,1.18,5.48,5.48,0,0,1,.62,2.13,107.84,107.84,0,0,1,.64,14.68q0,8.24-.41,15.27c-.28,4.78-.67,7.45-1.2,8a5.09,5.09,0,0,1-2.2,1.22,9.81,9.81,0,0,1-3,.49,5.08,5.08,0,0,1-1.52-.19,3.49,3.49,0,0,1-2.44-2.25q-.69-2.25-.87-17.11c0-1.41,0-3.41,0-6q0-12.06.69-15.23A3.5,3.5,0,0,1,111.34,15.19Zm5.47,2a3.33,3.33,0,0,0-.92-.53,2.56,2.56,0,0,0-.87-.25c-.1,0-.14,0-.14.09s.27.31.83.64a4.67,4.67,0,0,1,1.47,1.38c.34.49.57.74.69.74s0,0,0,0a2.83,2.83,0,0,0-.36-1A3.51,3.51,0,0,0,116.81,17.17Z"/><path class="cls-1" d="M128.68,16.52a14.63,14.63,0,0,1,3.22-.23,96.5,96.5,0,0,1,15.27,1.2,35.71,35.71,0,0,0,5.2.46,23.19,23.19,0,0,0,4-.37,21.12,21.12,0,0,1,3-.37,2.68,2.68,0,0,1,2,.69,3.5,3.5,0,0,1,.81,2.12q.15,1.47.2,6.72v1.42a21.16,21.16,0,0,1-.3,4.53,1.33,1.33,0,0,1-1.4,1.08,6.55,6.55,0,0,1-1.47-.18,17,17,0,0,0-3.36-.32,13.14,13.14,0,0,0-2.35.18l-1.1.19-.14,1.56q-.13,1.34-.14,7,0,7.08.6,12.88a8.5,8.5,0,0,1,.05,1c0,1.26-.37,2-1.11,2.39a20.32,20.32,0,0,1-4.5.23h-2.9c-3.53,0-5.72-.07-6.58-.14a3.08,3.08,0,0,1-1.75-.5,1.83,1.83,0,0,1-.5-1.43,15.44,15.44,0,0,1,.32-2.71,49.34,49.34,0,0,0,.46-8c0-2.69-.06-5.52-.19-8.46l-.18-3.77-1.06-.28a10.67,10.67,0,0,0-2.53-.27,19.48,19.48,0,0,0-3.54.36,10.59,10.59,0,0,1-1.7.23,2.27,2.27,0,0,1-2-1.42,4.59,4.59,0,0,1-.46-1.63c-.06-.6-.09-2.13-.09-4.58s0-4,.09-4.6a5.61,5.61,0,0,1,.46-1.8A5.69,5.69,0,0,1,128.68,16.52ZM152.05,57a2,2,0,0,0,0-1l0-.65-.33.6a10.17,10.17,0,0,1-1.19,1.52c-.49.55-.69.83-.6.83a1.47,1.47,0,0,0,.32-.1C151.26,57.88,151.86,57.48,152.05,57Zm8.78-37.49a3,3,0,0,0-2.62-1.24,3.53,3.53,0,0,0-1,.13c-.37.13-.55.25-.55.37s.32.31,1,.46a4.86,4.86,0,0,1,2.21,1.38c.8.8,1.27,1.2,1.43,1.2s.13-.12.13-.37A3.24,3.24,0,0,0,160.83,19.47Z"/><path class="cls-1" d="M178.27,13.67a14.13,14.13,0,0,1,2.57-.14l1.08,0,1.13,0a26.29,26.29,0,0,1,7,.9,8.8,8.8,0,0,1,4.19,2.6,20.23,20.23,0,0,1,4.83,8.78,18.94,18.94,0,0,1,.39,3.57q.06,2.24.07,12.62V56.31l-.55.74a6.47,6.47,0,0,1-2,1.38,5.19,5.19,0,0,1-1.66.55c-.49.06-1.5.12-3,.19-.53,0-1.15,0-1.89,0a5.59,5.59,0,0,1-2.48-.5,3.24,3.24,0,0,1-1.8-1.77,37.33,37.33,0,0,1-.37-6c-.06-2.91-.12-4.68-.18-5.29a6.29,6.29,0,0,0-.55-1.93c-.52-1.11-1.08-1.66-1.66-1.66s-.93.34-1.42,1a6.31,6.31,0,0,0-.9,2.69,44.31,44.31,0,0,0-.25,5.64v5l-.88.92c-1.1,1.1-2.87,1.65-5.29,1.65l-.57,0c-.26,0-.47,0-.62,0a17.36,17.36,0,0,1-2.53-.19,6.37,6.37,0,0,1-1.61-.6,5.82,5.82,0,0,0-.6-.29l-.51-.23-.37-.3c-.21-.19-.32-.33-.32-.44a2.75,2.75,0,0,0-.16-.67,3.15,3.15,0,0,1-.16-1c0-.32,0-.77-.07-1.35S167,52.68,167,52V42.38q0-9.48.07-11.92A15.21,15.21,0,0,1,167.5,27a27.43,27.43,0,0,1,2.39-5.8,21.58,21.58,0,0,1,3.32-4.65A10.23,10.23,0,0,1,178.27,13.67Zm2.8,15.41c-1-.92-1.65-1.38-1.93-1.38a.68.68,0,0,0-.41.14c-.16.06-.23.14-.23.23s.52.83,1.56,1.84l1.56,1.52-1.33,1.38c-.92.92-1.38,1.62-1.38,2.11,0,.25.08.4.23.46h.05q.36,0,1.74-1.47l1.48-1.61L184,33.82c1,.92,1.59,1.38,1.84,1.38h.09c.22-.09.32-.21.32-.37s-.47-.93-1.42-1.88l-1.47-1.48,1.61-1.56q1.47-1.34,1.47-1.56c0-.1-.08-.19-.23-.28a1,1,0,0,0-.37-.18c-.22,0-.77.4-1.66,1.19l-1.51,1.43ZM191,16.89a4.71,4.71,0,0,0-1.38-.37.57.57,0,0,0-.64.65,1.73,1.73,0,0,0,0,.41,2.28,2.28,0,0,0,1.25,1.2,12.17,12.17,0,0,1,3.63,3.49c.7.92,1.12,1.38,1.24,1.38s.19-.12.19-.36a6.62,6.62,0,0,0-.92-2.9A7,7,0,0,0,191,16.89Z"/><path class="cls-1" d="M207,15.19a13.81,13.81,0,0,1,5.15-.69,16.18,16.18,0,0,1,4.23.41,3.84,3.84,0,0,1,2.49,2.35,12.24,12.24,0,0,1,.64,4.55c0,1.88-.21,4.77-.64,8.7-.37,3.43-.55,5.52-.55,6.25a13.21,13.21,0,0,0,.18,1.84,6.57,6.57,0,0,0,.67,2.12,1.31,1.31,0,0,0,1.22.64,9.83,9.83,0,0,0,3.45-1.15A12.47,12.47,0,0,1,228,38.88h.46a6.15,6.15,0,0,1,4.46,1.86A10.9,10.9,0,0,1,235.58,46a15.78,15.78,0,0,1,.42,3.59,13.7,13.7,0,0,1-1,5.29,6.09,6.09,0,0,1-2.65,3.27c-.64.34-2.39.53-5.24.6h-2.26q-4.92,0-9.61-.14c-3-.09-5-.18-6.07-.25a8.08,8.08,0,0,1-2.26-.4,3.38,3.38,0,0,1-1.33-1.05,4.33,4.33,0,0,1-.85-1.54,11.94,11.94,0,0,1-.21-2.74c0-.37,0-1.9.09-4.6.13-4.36.19-7.25.19-8.7q0-5.84-.46-12.23c-.16-2.45-.23-4.26-.23-5.43a11.5,11.5,0,0,1,.6-4.42A4.23,4.23,0,0,1,207,15.19Zm9.34.87a2.76,2.76,0,0,0-1.43-.46h-.78l.69.51.92.74,1,.82a2.56,2.56,0,0,0,1.24.74s0,0,0-.05a2.32,2.32,0,0,0-.57-1.17A5.22,5.22,0,0,0,216.31,16.06Zm14.76,25.3a4.94,4.94,0,0,0-1.1-1,3.83,3.83,0,0,0-1.2-.28,3.13,3.13,0,0,1-.39,0,2.69,2.69,0,0,0-.34,0,2.5,2.5,0,0,0-1.57.59c-.21.22-.32.36-.32.42s.42.32,1.24.32a5.15,5.15,0,0,1,2.81.94,6.81,6.81,0,0,1,2.21,2.33c.18.27.32.36.41.27a.35.35,0,0,0,.05-.23,4,4,0,0,0-.55-1.54A9.89,9.89,0,0,0,231.07,41.36Z"/><path class="cls-1" d="M17.77,69.52a15.85,15.85,0,0,1,4.05-.33,41.81,41.81,0,0,1,7.82.65,21.26,21.26,0,0,1,9.62,5,28.36,28.36,0,0,1,7.31,9.52,18.75,18.75,0,0,1,1.93,8.15,22.46,22.46,0,0,1-2.76,10.25,21.45,21.45,0,0,1-5.08,6.49A16.64,16.64,0,0,1,34,112.85q-3.22.87-11.08.87l-.88,0c-.37,0-.63,0-.78,0a27.36,27.36,0,0,1-3.11-.16,3.11,3.11,0,0,1-1.26-.67,5.18,5.18,0,0,1-1.68-2.35,12.61,12.61,0,0,1-.48-4,55.9,55.9,0,0,1,.32-5.66q.46-5.39.46-12.33a101.5,101.5,0,0,0-.46-11c-.18-1.56-.28-2.62-.28-3.17a8.34,8.34,0,0,1,.14-1.52A4,4,0,0,1,17.77,69.52Zm12,20a2.62,2.62,0,0,0-1.66-1c-.3,0-.46.08-.46.23s.39.61,1.15,1.29l1.34,1.15-1.06,1.1c-.74.74-1.1,1.29-1.1,1.66a.46.46,0,0,0,.18.37h0q.36,0,1.38-1.11L30.84,92l1,1.1c.7.77,1.15,1.15,1.33,1.15s.37-.09.37-.27-.32-.78-1-1.43l-1.11-1.19,1.24-1.29c.68-.68,1-1.09,1-1.24a.26.26,0,0,0-.14-.19h-.09a2.86,2.86,0,0,0-1.38.83c-.71.64-1.14,1-1.29,1A4.53,4.53,0,0,1,29.78,89.53Zm3.73-15.92a11.19,11.19,0,0,0-2.81-.69c-.22,0-.32,0-.32.14s.44.57,1.33,1.06a19.47,19.47,0,0,1,5.43,4.55c1.26,1.5,2.13,2.25,2.62,2.25a1.55,1.55,0,0,0,.6-.13q.87-.33.87-1c0-.64-.53-1.48-1.61-2.53A16.58,16.58,0,0,0,33.51,73.61Z"/><path class="cls-1" d="M67.55,70.71a28.14,28.14,0,0,1,3.08-.14,18.74,18.74,0,0,1,3.82.23A3.57,3.57,0,0,1,76.06,72a4.49,4.49,0,0,1,1,2,17.13,17.13,0,0,1,.23,2.76c0,.09,0,.24,0,.46a5,5,0,0,0,0,.5,8,8,0,0,1-1,4,3.4,3.4,0,0,1-3,1.2,18,18,0,0,1-3.86-.55,17.84,17.84,0,0,0-3.68-.56h-.46a2.37,2.37,0,0,0-1.75.69,3.38,3.38,0,0,0-1.15,2.58,2.63,2.63,0,0,0,.92,2.12,6.45,6.45,0,0,0,4.09,1A25.37,25.37,0,0,0,71.27,88a3.25,3.25,0,0,1,.6,0,1.89,1.89,0,0,1,1.2.69,5.26,5.26,0,0,1,1.33,3.86A5.39,5.39,0,0,1,74,94.54,2.53,2.53,0,0,1,73,95.87a5.24,5.24,0,0,1-2.16.28,40.5,40.5,0,0,1-4.19-.28l-2.39-.18a3,3,0,0,0-1.1.18,2.62,2.62,0,0,0-1.09,1.27,4.64,4.64,0,0,0-.48,2A3.45,3.45,0,0,0,62.9,102a5.51,5.51,0,0,0,3.54,1,6.8,6.8,0,0,0,1.68-.16,14.15,14.15,0,0,0,2-.81,13.88,13.88,0,0,1,5.71-1.38c2,0,3.45.59,4.18,1.75a3.36,3.36,0,0,1,.42,1.84,7.58,7.58,0,0,1-.56,2.85Q78.4,111,72.05,112.8a11.12,11.12,0,0,1-2.66.44c-1,.05-3.12.08-6.49.11-2.27,0-3.88,0-4.83,0a13.52,13.52,0,0,1-2.48-.23,2.89,2.89,0,0,1-1.29-.44,3.19,3.19,0,0,1-.55-.87,4.54,4.54,0,0,1-.42-2.07,26.5,26.5,0,0,1,.32-3.5q.84-6,.83-23.13,0-6,.21-7.73a4.27,4.27,0,0,1,1.08-2.58,4.08,4.08,0,0,1,2-1A43.24,43.24,0,0,1,63,71.13Zm5.1,19.41a1.87,1.87,0,0,0,.09-.32.45.45,0,0,0-.07-.25.34.34,0,0,0-.23-.16l-.27-.09a1.27,1.27,0,0,0-.37-.07,2.14,2.14,0,0,1-.39-.07L70.49,89l.6.51c.67.58,1.12.87,1.33.87S72.59,90.28,72.65,90.12Zm2.26-17.61a8.66,8.66,0,0,0-2.17-.65l-1-.18,1.19.69A18.8,18.8,0,0,1,75,73.7a2.37,2.37,0,0,0,1,.6c.09,0,.14-.09.14-.28a.8.8,0,0,0,0-.16,1.5,1.5,0,0,1,0-.2C76,73.23,75.61,72.84,74.91,72.51Zm3.54,30.26a.79.79,0,0,0,.14-.36c0-.53-.65-.79-1.94-.79-.7,0-1.1.08-1.19.23s0,.23.23.23a4.82,4.82,0,0,1,1.42.51,2.79,2.79,0,0,0,1,.37A.38.38,0,0,0,78.45,102.77Z"/><path class="cls-1" d="M99.42,71.77c1.69-.12,3.28-.18,4.79-.18a14.52,14.52,0,0,1,6.16,1.1,4.73,4.73,0,0,1,2.07,1.75,11.77,11.77,0,0,1,1.15,3.49,11.67,11.67,0,0,1,.32,2.49,2.21,2.21,0,0,1-1.15,2.16,9.15,9.15,0,0,1-3.4.37c-1.47,0-2.75,0-3.82,0l-6.48,0-.56.64a3,3,0,0,0-.78,2.21A3,3,0,0,0,98.5,88a1.76,1.76,0,0,0,1.29.55,7.12,7.12,0,0,0,1.89-.32,12.44,12.44,0,0,1,3.17-.32,13.68,13.68,0,0,1,3.5.37q4.37,1.33,5.52,4.18.78,2,.78,8.15a36.67,36.67,0,0,1-.6,7.72,11.78,11.78,0,0,1-1.24,3.55,3.84,3.84,0,0,1-2,1.65q-.87.38-12.65.37a73.66,73.66,0,0,1-8-.23,3.61,3.61,0,0,1-2-1,4.43,4.43,0,0,1-1.2-2,14.61,14.61,0,0,1-.32-3.68v-.46a10,10,0,0,1,.32-2.9,3,3,0,0,1,3.18-2.07,21.32,21.32,0,0,1,5.1.88,25.84,25.84,0,0,0,5,.92,3.06,3.06,0,0,0,2-.65,3.44,3.44,0,0,0,1.15-2.8,3.25,3.25,0,0,0-.83-2.35,2.28,2.28,0,0,0-1.7-.64,20.1,20.1,0,0,0-2.8.36,18.22,18.22,0,0,1-3.13.33q-5.39,0-7.87-2.86c-1.16-1.34-1.75-3.37-1.75-6.07,0-1.22.1-2.74.28-4.55a33.94,33.94,0,0,1,1.15-6.63,7,7,0,0,1,2.12-3.26,7.94,7.94,0,0,1,3.47-1.57A55.83,55.83,0,0,1,99.42,71.77Zm-8.09,30.59a2.61,2.61,0,0,0-1.24-.28,2.06,2.06,0,0,0-1.48.46l-.55.46h1.2a8.13,8.13,0,0,0,1.88-.18C91.6,102.7,91.66,102.54,91.33,102.36Zm18.31-12.28a5,5,0,0,0-1.61-.55h0c-.34,0-.22.21.37.64s1.5,1.32,2.67,2.48a15,15,0,0,0,2,1.84c.06,0,.1-.06.1-.18a3.88,3.88,0,0,0-.51-1.52A6.23,6.23,0,0,0,109.64,90.08Zm.23-16.93a4.42,4.42,0,0,0-1.8-.46c-.15,0-.23,0-.23.09a13.45,13.45,0,0,0,1.34.92,14.74,14.74,0,0,1,2.25,1.75c.58.37.89.49.92.37a2.49,2.49,0,0,0-.83-1.4A5.23,5.23,0,0,0,109.87,73.15Z"/><path class="cls-1" d="M122.65,70.39a6.3,6.3,0,0,1,1.89-.23,9.81,9.81,0,0,1,3.36.58,3.31,3.31,0,0,1,2,1.44q.65,1.38,1,9.62c.06,1.26.09,3.49.09,6.71q0,15.64-.82,21.53a4.41,4.41,0,0,1-.65,2,4.76,4.76,0,0,1-1.79,1.19,9,9,0,0,1-3.36.55,6,6,0,0,1-2.53-.41,3.31,3.31,0,0,1-.9-.62,3.16,3.16,0,0,1-.62-1.27,13.5,13.5,0,0,1-.43-2c-.11-.74-.2-1.88-.28-3.43s-.13-3.19-.16-4.92-.06-4.07-.09-7q0-2.22,0-6.12,0-11.6.69-14.81A3.52,3.52,0,0,1,122.65,70.39Zm5.48,2a3.66,3.66,0,0,0-.92-.53,2.54,2.54,0,0,0-.88-.25c-.09,0-.14,0-.14.09s.28.31.83.64a4.61,4.61,0,0,1,1.48,1.38c.33.49.56.74.69.74s0,0,0,0a2.71,2.71,0,0,0-.37-1A3.51,3.51,0,0,0,128.13,72.37Z"/><path class="cls-1" d="M139.44,71.49c.49-.09,3.7-.16,9.62-.23h1.47a83.47,83.47,0,0,1,11.82.56,9.7,9.7,0,0,1,5.11,2.2A6.8,6.8,0,0,1,169,76a5.49,5.49,0,0,1,.44,2.32v.73a15.22,15.22,0,0,1-.18,1.71,2,2,0,0,1-.56.87,2.46,2.46,0,0,1-.8.6,3.37,3.37,0,0,1-1.13.14,17.83,17.83,0,0,1-4.09-.74,29.85,29.85,0,0,0-7.41-.92c-.73,0-2,.06-3.68.18q-4.69.42-6.39,2.21l-.46.46a2,2,0,0,0-.44,1.06c0,.25,0,.58,0,1s.08,2.39.23,5.52c0,.62,0,1.46,0,2.53a39,39,0,0,1-.18,4.1c-.12,1.35-.18,2-.18,2.11a3.61,3.61,0,0,0,.36,1.38,2.27,2.27,0,0,0,1.34,1.2,24.24,24.24,0,0,0,5.43.37,14.43,14.43,0,0,0,3.81-.28,6.22,6.22,0,0,0,3.91-4.6,4.37,4.37,0,0,0,.14-1.15c0-1.44-.29-2.31-.87-2.62a.72.72,0,0,0-.28-.09c-.24,0-.84.47-1.79,1.42a9.9,9.9,0,0,1-2.44,1.89,4.76,4.76,0,0,1-1.79.32,4.18,4.18,0,0,1-3.64-1.61,5.69,5.69,0,0,1-.55-3.08,8.18,8.18,0,0,1,.55-3.41,7,7,0,0,1,1.31-1.86,3.7,3.7,0,0,1,1.45-1,29.42,29.42,0,0,1,5.52-.32c5.74,0,9.17.25,10.31.74a.12.12,0,0,1,.09,0,1.56,1.56,0,0,1,1,.88,55.1,55.1,0,0,1,.32,7.82v4.37a45.55,45.55,0,0,1-.25,6,13.12,13.12,0,0,1-1.36,3.71,6.1,6.1,0,0,1-2.25,2.73,7.62,7.62,0,0,1-3.82.76c-.89,0-1.9,0-3-.13q-3.16-.28-11-.37l-3.65,0-3,0H138.8a2.69,2.69,0,0,1-1.59-1,5.59,5.59,0,0,1-1.26-2,11.34,11.34,0,0,1-.28-3.13c0-2.08.15-5.89.46-11.41.15-2.6.23-5.72.23-9.34q.09-10,.69-12a4.67,4.67,0,0,1,1-1.77A2.83,2.83,0,0,1,139.44,71.49Zm15.41,23.05a1.93,1.93,0,0,1-.87.18,3.66,3.66,0,0,1-2.53-1.28c-.55-.37-.85-.48-.88-.33,0,.4.36.92,1.06,1.57a4.06,4.06,0,0,0,1.84,1.1,1.4,1.4,0,0,0,.42,0c1,0,1.59-.34,1.84-1,0-.13.05-.23.07-.3s0-.13-.1-.14a.74.74,0,0,0-.32,0Zm11.82,12.7a1,1,0,0,0-.09-.53c-.06-.08-.24-.12-.55-.12a1.14,1.14,0,0,0-.9.39,9.78,9.78,0,0,0-1,1.82,4.43,4.43,0,0,1-1.75,2,8.94,8.94,0,0,1-3.22.92c-.67.09-1,.2-1,.32s.61.28,1.84.28a6.87,6.87,0,0,0,4.46-1.48A7.7,7.7,0,0,0,166,109,3.63,3.63,0,0,0,166.67,107.24Zm-2.16-33.4a4.39,4.39,0,0,0-1.52-.46c-.09,0-.13,0-.13.09s.13.2.41.32a10.36,10.36,0,0,1,3.86,3.73c.59.92,1,1.38,1.11,1.38s.09-.05.09-.14,0-.07,0-.14a.45.45,0,0,0,0-.13,4.22,4.22,0,0,0-1.2-2.51A7.73,7.73,0,0,0,164.51,73.84Z"/><path class="cls-1" d="M178.73,70.57a6.13,6.13,0,0,1,1.7-.18,16,16,0,0,1,3.91.53,6.3,6.3,0,0,1,2.85,1.31q1.56,1.47,6.58,14.72A19.87,19.87,0,0,0,195,89.66c.21.25.32.28.32.1a5.69,5.69,0,0,0-.09-.74,97,97,0,0,1-.6-11.5V76.37a13.1,13.1,0,0,1,.46-3.68A3.66,3.66,0,0,1,196.76,71a7.28,7.28,0,0,1,3.31-.59c2.58,0,4.48.59,5.7,1.7a3.72,3.72,0,0,1,1.2,1.7q.47,1.65.55,12.24c0,.58,0,2.28,0,5.1,0,1.26,0,2.84,0,4.74s0,3.19,0,3.86q0,6.16-.18,8.12a8.3,8.3,0,0,1-.74,3c-.55,1.07-1.84,1.61-3.86,1.61a28.3,28.3,0,0,1-3.54-.23,7.87,7.87,0,0,1-4.51-1.61,4.9,4.9,0,0,1-1.1-1.52c-.28-.58-.76-1.89-1.43-3.91A66.67,66.67,0,0,0,188.94,97q-1.8-3.67-2.53-3.68c-.19,0-.28.27-.28.83,0,.82.22,3.28.65,7.36a65.27,65.27,0,0,1,.5,6.57,7.42,7.42,0,0,1-.69,3.73,4,4,0,0,1-2.39,1.61,7.18,7.18,0,0,1-2,.23,11.49,11.49,0,0,1-3.71-.6,3.79,3.79,0,0,1-2.23-1.47q-.92-1.8-1.56-8.19-.42-4.78-.42-11.08A108.3,108.3,0,0,1,175.09,77a13.67,13.67,0,0,1,1.24-4.53A4.06,4.06,0,0,1,178.73,70.57Zm5,1.29a8.89,8.89,0,0,0-1.79-.37c-.21,0-.32.05-.32.14s.38.46,1.15.92a28.9,28.9,0,0,1,3,1.93,10.35,10.35,0,0,0,1.88,1.2h.05a.14.14,0,0,0,0-.09c0-.55-.57-1.34-1.71-2.35A5.81,5.81,0,0,0,183.69,71.86Zm20.2.6a5.56,5.56,0,0,0-2.16-.64c-.16,0-.23,0-.23.09s.52.6,1.56,1.24a10.25,10.25,0,0,1,2.58,2.3c.49.68.79,1,.92,1s.09-.12.09-.37a3.51,3.51,0,0,0-.9-2A6,6,0,0,0,203.89,72.46Z"/><path class="cls-1" d="M226.43,70.71c.92-.09,2-.14,3.26-.14a18.39,18.39,0,0,1,3.78.23,3.69,3.69,0,0,1,1.22.69,6.16,6.16,0,0,1,.94,1.29,11.07,11.07,0,0,1,.5,4.19A27.25,27.25,0,0,1,236,79.8a3.55,3.55,0,0,1-.46,1.31,3.17,3.17,0,0,1-3.4,1.79,18.2,18.2,0,0,1-3.77-.5,15.53,15.53,0,0,0-3.78-.51,3.63,3.63,0,0,0-1.93.37,3.21,3.21,0,0,0-.94,1.29,3.87,3.87,0,0,0-.44,1.61,2.65,2.65,0,0,0,1.84,2.62,12,12,0,0,0,3.91.46,19.64,19.64,0,0,0,3-.23l.92-.09a1.9,1.9,0,0,1,1.15.69,5.21,5.21,0,0,1,1.33,3.86,5.39,5.39,0,0,1-.44,2.07,2.53,2.53,0,0,1-.94,1.33,5.4,5.4,0,0,1-2.21.28,40.33,40.33,0,0,1-4.18-.28c-.92-.09-1.66-.13-2.21-.13a2.93,2.93,0,0,0-1.5.3,2.64,2.64,0,0,0-.89,1.08,4,4,0,0,0-.42,2,3.5,3.5,0,0,0,.69,2.44,5.5,5.5,0,0,0,4.14,1.52,6.8,6.8,0,0,0,1.68-.16,13.69,13.69,0,0,0,2-.81,13.77,13.77,0,0,1,5.66-1.38c2.21,0,3.63.66,4.28,2a4.09,4.09,0,0,1,.32,1.7,7.3,7.3,0,0,1-1.75,4.79,8,8,0,0,1-3,2.25,14.77,14.77,0,0,1-4.65,1.63,73.56,73.56,0,0,1-8.42.3q-4.92,0-6.18-.06a4.27,4.27,0,0,1-1.73-.35c-.86-.58-1.29-1.69-1.29-3.31,0-.65.11-1.86.32-3.64s.41-4.86.58-9.63.25-9.33.25-13.69a72.19,72.19,0,0,1,.23-7.33,4.4,4.4,0,0,1,1.06-2.56,5.26,5.26,0,0,1,2.78-1.08Q219.63,71.35,226.43,70.71Zm5.24,19.41a1.87,1.87,0,0,0,.09-.32c0-.3-.44-.52-1.33-.64l-.92-.19.6.51c.67.58,1.12.87,1.33.87S231.61,90.28,231.67,90.12Zm2.21-17.61a7.85,7.85,0,0,0-2.12-.69l-1-.14,1.33.83a17.63,17.63,0,0,1,2,1.33,2.71,2.71,0,0,0,.83.46c.12,0,.18-.12.18-.37v-.27C235,73.26,234.62,72.87,233.88,72.51Zm3.08,29.3a5.23,5.23,0,0,0-1.56-.19c-.59,0-.88,0-.88.14s.43.37,1.29.74a6.27,6.27,0,0,0,1.38.41.38.38,0,0,0,.28-.14C237.77,102.31,237.61,102,237,101.81Z"/><path class="cls-1" d="M254.07,72.92q3.69-.18,5.89-.18a9.74,9.74,0,0,1,3,.32,7.77,7.77,0,0,1,2.39,1.59,11.75,11.75,0,0,1,2.17,2.46,12,12,0,0,1,2,6.57,5.62,5.62,0,0,1-.27,1.84A8.19,8.19,0,0,1,268,87.64c-.13.18-.29.4-.49.64s-.35.45-.46.6-.17.26-.2.32a.67.67,0,0,0-.1.28c0,.55.6,1.1,1.8,1.66a7.48,7.48,0,0,1,3,2.41,11.43,11.43,0,0,1,1.06,4.39c.19,2,.28,4.51.28,7.55a35.8,35.8,0,0,1-.28,5.89c-.24,1.13-.64,1.81-1.19,2a19.86,19.86,0,0,1-4.79.32c-2.11,0-3.4,0-3.86-.09a1.37,1.37,0,0,1-1-.46,4,4,0,0,1-.37-2.07c0-.92.13-2.7.37-5.34a56.17,56.17,0,0,0,.32-5.7,9.26,9.26,0,0,0-.23-2.58,2.38,2.38,0,0,0-1-1.08,4.54,4.54,0,0,0-1.79-.62l-.21,0a1.29,1.29,0,0,0-.25,0,4.91,4.91,0,0,0-1.77.34,2,2,0,0,0-1.13.81A2.59,2.59,0,0,0,255.5,98a9.37,9.37,0,0,0,.46,2.71,34.89,34.89,0,0,1,1.56,9.57,5.76,5.76,0,0,1-.41,2.62,2.41,2.41,0,0,1-.87,1,27.55,27.55,0,0,1-5.16.32c-.79,0-1.71,0-2.76,0a3,3,0,0,1-3.74-2.8,25.46,25.46,0,0,1-.35-5c0-1.44.05-3.25.14-5.43.09-2.39.14-5.63.14-9.7,0-2.64,0-4.53,0-5.66q-.09-4.51-.09-5.43a21.13,21.13,0,0,1,.27-4.32,4.3,4.3,0,0,1,1.15-1.89,2.66,2.66,0,0,1,1-.78,11.9,11.9,0,0,1,1.87-.14C251.9,73,253.71,73,254.07,72.92ZM254.3,83c-.76-.7-1.3-1-1.61-1s-.5,0-.5.13.4.63,1.19,1.43l1.25,1.24-1.11,1.15a5.05,5.05,0,0,0-1.1,1.43c0,.24.07.37.23.37.34,0,.81-.36,1.42-1.06l1.15-1.24,1.15,1.1c.77.77,1.25,1.15,1.43,1.15s.28-.08.28-.23c0-.31-.31-.75-.92-1.33s-1-1.09-1-1.34.37-.69,1.1-1.24,1-1,1-1.15-.11-.23-.33-.32h-.09c-.3,0-.76.31-1.38.92l-1.15,1.1Zm9.25-8.78a4.31,4.31,0,0,0-2.07-.37q-.78,0-.78.18c0,.13.53.46,1.61,1a12,12,0,0,1,2.76,1.88c.67.62,1.09.92,1.24.92h.05a.26.26,0,0,0,0-.18,3.75,3.75,0,0,0-1-1.8A6.13,6.13,0,0,0,263.55,74.21ZM271,94a5.14,5.14,0,0,0-1.08-1.2c-.51-.43-.84-.64-1-.64s-.1,0-.1.09a14.78,14.78,0,0,0,1.45,2.23,17.72,17.72,0,0,0,1.54,2s.05-.08.05-.23A4.84,4.84,0,0,0,271,94Z"/></svg>