<svg width="30" height="19" viewBox="0 0 30 19" fill="none" xmlns="http://www.w3.org/2000/svg">
<path d="M13.92 13.88C13.7467 13.7733 13.5533 13.72 13.34 13.72C13.1933 13.72 13.0533 13.7533 12.92 13.82C12.8133 13.8733 12.76 13.9267 12.76 13.98C12.76 14.0467 12.9267 14.1 13.26 14.14C13.58 14.1667 13.8867 14.32 14.18 14.6C14.4467 14.8667 14.58 14.9533 14.58 14.86C14.58 14.7533 14.5 14.5867 14.34 14.36C14.1933 14.1333 14.0533 13.9733 13.92 13.88ZM10.48 0.74C10.08 0.579999 9.84667 0.499999 9.78 0.499999C9.75333 0.499999 9.74 0.506666 9.74 0.519999C9.74 0.573332 9.94 0.719999 10.34 0.959999C11.0067 1.37333 11.5333 1.92667 11.92 2.62C12.1867 3.06 12.4 3.28 12.56 3.28C12.6267 3.28 12.72 3.23333 12.84 3.14C12.9733 3.02 13.04 2.88667 13.04 2.74C13.04 2.36667 12.62 1.92 11.78 1.4C11.3533 1.13333 10.92 0.913332 10.48 0.74ZM4.98 0.239999C5.28667 0.133332 5.58667 0.0666656 5.88 0.0399992C6.17333 0.0133329 6.82667 -2.38419e-07 7.84 -2.38419e-07C9.02667 -2.38419e-07 9.81333 0.0333331 10.2 0.0999997C10.5867 0.166666 11.08 0.353333 11.68 0.66C12.4 1.02 12.9733 1.55333 13.4 2.26C13.84 2.95333 14.06 3.68 14.06 4.44C14.06 4.96 13.9533 5.44 13.74 5.88C13.5933 6.16 13.36 6.49333 13.04 6.88C12.72 7.26667 11.9667 8.10667 10.78 9.4C9.1 11.2133 8.02667 12.5333 7.56 13.36C7.37333 13.6533 7.28 13.9 7.28 14.1C7.28 14.2733 7.36667 14.3867 7.54 14.44C7.71333 14.5067 7.95333 14.54 8.26 14.54C9.43333 14.54 10.7 14.2733 12.06 13.74C12.7533 13.4733 13.2867 13.34 13.66 13.34C14.18 13.34 14.54 13.6133 14.74 14.16C14.9267 14.6133 15.02 15.2 15.02 15.92C15.02 16.1867 15.0067 16.3733 14.98 16.48C14.82 17.3333 14.06 17.9067 12.7 18.2C11.8467 18.3733 10.42 18.46 8.42 18.46C5.07333 18.46 2.8 18.2867 1.6 17.94C1.06667 17.7933 0.626667 17.42 0.28 16.82C0.0933334 16.5133 1.49012e-08 16.1333 1.49012e-08 15.68C1.49012e-08 14.9867 0.26 14.3333 0.78 13.72C1.3 13.1067 2.31333 12.26 3.82 11.18C5.80667 9.75333 7.16667 8.69333 7.9 8C8.64667 7.30667 9.02 6.74667 9.02 6.32C9.02 5.98667 8.82667 5.64 8.44 5.28C8.06667 4.90667 7.64667 4.66 7.18 4.54C7.00667 4.48667 6.82667 4.46 6.64 4.46C6.34667 4.46 6.1 4.56667 5.9 4.78C5.7 4.98 5.52 5.32 5.36 5.8C5.14667 6.46667 4.85333 6.95333 4.48 7.26C4.10667 7.56667 3.59333 7.75333 2.94 7.82C2.64667 7.84667 2.44 7.86 2.32 7.86C1.70667 7.86 1.27333 7.72 1.02 7.44C0.766667 7.14667 0.64 6.66 0.64 5.98V5.82C0.666667 4.76667 0.98 3.76667 1.58 2.82C2.36667 1.62 3.5 0.76 4.98 0.239999ZM23.9903 14.6C23.9903 14.5733 24.1436 14.4067 24.4503 14.1C24.7703 13.7933 24.9303 13.5867 24.9303 13.48C24.9303 13.4267 24.8903 13.4 24.8103 13.4C24.757 13.4 24.537 13.5533 24.1503 13.86L23.6103 14.32L23.1503 13.86C22.8703 13.5533 22.637 13.4 22.4503 13.4C22.3436 13.4 22.2903 13.44 22.2903 13.52C22.2903 13.6 22.4436 13.7667 22.7503 14.02C23.097 14.3133 23.2703 14.5 23.2703 14.58C23.2703 14.6467 23.1303 14.82 22.8503 15.1C22.5703 15.38 22.4303 15.5933 22.4303 15.74C22.4303 15.8867 22.457 15.96 22.5103 15.96C22.6036 15.96 22.7903 15.7933 23.0703 15.46C23.3636 15.1133 23.5503 14.94 23.6303 14.94C23.7236 14.94 23.8903 15.1 24.1303 15.42C24.397 15.7267 24.597 15.88 24.7303 15.88C24.7836 15.88 24.8103 15.84 24.8103 15.76C24.8103 15.68 24.6703 15.4733 24.3903 15.14C24.1236 14.82 23.9903 14.64 23.9903 14.6ZM27.0703 9.54C26.7103 9.43333 26.397 9.38 26.1303 9.38C25.9436 9.38 25.8503 9.40667 25.8503 9.46C25.8503 9.51333 26.0903 9.63333 26.5703 9.82C27.1436 10.06 27.8903 10.54 28.8103 11.26C28.957 11.3267 29.0303 11.3333 29.0303 11.28C29.0303 11.1733 28.797 10.8867 28.3303 10.42C27.8636 9.95333 27.4436 9.66 27.0703 9.54ZM29.4103 3.14C29.437 3.06 29.4503 3 29.4503 2.96C29.4503 2.74667 29.3303 2.53333 29.0903 2.32C28.8636 2.10667 28.637 1.96667 28.4103 1.9C28.3036 1.86 28.2503 1.85333 28.2503 1.88C28.2503 1.89333 28.3436 2.00667 28.5303 2.22C28.757 2.46 28.9236 2.70667 29.0303 2.96C29.1103 3.17333 29.1903 3.28 29.2703 3.28C29.3236 3.28 29.3703 3.23333 29.4103 3.14ZM22.2703 0.799999C22.8703 0.599999 23.5236 0.499999 24.2303 0.499999C25.3236 0.499999 26.4903 0.739999 27.7303 1.22C29.157 1.78 29.8703 2.32667 29.8703 2.86C29.8703 3.08667 29.7503 3.33333 29.5103 3.6C29.2836 3.84 28.9303 4.09333 28.4503 4.36C27.9703 4.61333 27.5103 4.79333 27.0703 4.9C26.7636 4.98 26.477 5.02 26.2103 5.02C25.6903 5.02 25.097 4.84 24.4303 4.48C23.817 4.17333 23.437 4.02 23.2903 4.02C22.7436 4.02 22.237 4.5 21.7703 5.46C21.317 6.42 21.0903 7.48667 21.0903 8.66C21.0903 9.88667 21.2836 10.6267 21.6703 10.88C21.777 10.9467 21.8636 10.98 21.9303 10.98C22.0903 10.98 22.3436 10.7667 22.6903 10.34C23.117 9.80667 23.6036 9.39333 24.1503 9.1C24.377 8.98 24.5703 8.90667 24.7303 8.88C24.9036 8.85333 25.2236 8.83333 25.6903 8.82C26.357 8.82 26.8703 8.88667 27.2303 9.02C28.497 9.51333 29.2903 10.2733 29.6103 11.3C29.7036 11.5933 29.7503 12.3067 29.7503 13.44C29.7503 14.5733 29.7036 15.3067 29.6103 15.64C29.4503 16.24 29.1703 16.76 28.7703 17.2C28.3703 17.6533 27.897 17.9667 27.3503 18.14C26.6036 18.3933 25.3436 18.5533 23.5703 18.62C22.877 18.6467 22.4703 18.66 22.3503 18.66C21.8436 18.66 21.3636 18.6133 20.9103 18.52C19.2303 18.1867 18.217 17.4133 17.8703 16.2C17.7636 15.88 17.6103 15.1133 17.4103 13.9C17.237 12.8333 17.1436 11.4333 17.1303 9.7C17.1303 8.47333 17.137 7.70667 17.1503 7.4C17.177 7.09333 17.2503 6.77333 17.3703 6.44C17.6503 5.62667 18.0903 4.76 18.6903 3.84C19.2503 2.98667 19.8036 2.33333 20.3503 1.88C20.897 1.41333 21.537 1.05333 22.2703 0.799999Z" fill="black"/>
</svg>
