<svg width="32" height="20" viewBox="0 0 32 20" fill="none" xmlns="http://www.w3.org/2000/svg">
<path d="M4.2 10.48C4.01333 10.3067 3.84 10.22 3.68 10.22C3.58667 10.22 3.46 10.2533 3.3 10.32C3.18 10.36 3.12 10.4133 3.12 10.48C3.12 10.5733 3.23333 10.62 3.46 10.62C3.64667 10.62 3.84667 10.74 4.06 10.98C4.27333 11.22 4.40667 11.3133 4.46 11.26C4.51333 11.2067 4.54 11.14 4.54 11.06C4.54 10.86 4.42667 10.6667 4.2 10.48ZM11.38 2.06C11.0867 1.92667 10.7733 1.86 10.44 1.86C10.3467 1.86 10.3 1.87333 10.3 1.9C10.3 1.91333 10.4733 2.03333 10.82 2.26C11.1933 2.5 11.5667 2.84 11.94 3.28C12.2733 3.65333 12.4667 3.84 12.52 3.84C12.5467 3.84 12.56 3.79333 12.56 3.7C12.56 3.38 12.4533 3.06667 12.24 2.76C12.0267 2.45333 11.74 2.22 11.38 2.06ZM1.14 0.92C1.43333 0.866666 1.63333 0.84 1.74 0.84C1.96667 0.84 2.75333 0.906666 4.1 1.04C5.46 1.16 6.56 1.22 7.4 1.22C8.05333 1.22 8.6 1.21333 9.04 1.2C9.53333 1.18667 10.1133 1.18 10.78 1.18C11.4067 1.18 11.8133 1.21333 12 1.28C12.2 1.34667 12.4133 1.52 12.64 1.8C12.9867 2.18667 13.24 2.88667 13.4 3.9C13.4533 4.26 13.5067 5.48 13.56 7.56C13.6133 9.62667 13.64 11.5067 13.64 13.2C13.64 14.1867 13.6267 14.9333 13.6 15.44C13.4533 17.48 13.1467 18.7533 12.68 19.26C12.6667 19.2733 12.6533 19.2867 12.64 19.3C12.3467 19.5933 11.78 19.7667 10.94 19.82C10.1133 19.8733 7.33333 19.9133 2.6 19.94H0.82L0.5 19.64C0.313333 19.4533 0.18 19.2267 0.1 18.96C0.0333334 18.76 1.49012e-08 17.44 1.49012e-08 15C1.49012e-08 11.5733 0.0466667 9.76667 0.14 9.58C0.22 9.42 0.38 9.34 0.62 9.34C0.86 9.34 1.13333 9.40667 1.44 9.54C1.76 9.67333 2.38667 9.74 3.32 9.74C4.26667 9.74 4.77333 9.79333 4.84 9.9C4.88 9.96667 4.9 10.14 4.9 10.42C4.9 10.6333 4.89333 10.8 4.88 10.92C4.86667 11.04 4.86 11.2133 4.86 11.44C4.86 12.2133 4.96667 12.8933 5.18 13.48C5.40667 14.0533 5.70667 14.44 6.08 14.64C6.32 14.76 6.6 14.82 6.92 14.82C7.29333 14.82 7.62 14.7533 7.9 14.62C8.16667 14.4867 8.37333 14.2933 8.52 14.04C8.68 13.7733 8.80667 13.38 8.9 12.86C8.98 12.46 9.05333 11.76 9.12 10.76C9.2 9.76 9.24 8.96 9.24 8.36C9.24 8.08 9.23333 7.90667 9.22 7.84C9.14 7.28 8.92 6.88667 8.56 6.66C8.21333 6.42 7.63333 6.3 6.82 6.3C6.35333 6.3 5.87333 6.32667 5.38 6.38C4.32667 6.5 3.5 6.61333 2.9 6.72C2.06 6.85333 1.49333 6.92 1.2 6.92C0.84 6.92 0.586667 6.84667 0.44 6.7C0.346667 6.59333 0.286667 6.40667 0.26 6.14C0.246667 5.86 0.24 5.15333 0.24 4.02V1.54L0.52 1.28C0.746667 1.08 0.953333 0.959999 1.14 0.92ZM30.2045 14.46C29.9912 14.3 29.8379 14.22 29.7445 14.22C29.6512 14.22 29.6445 14.2867 29.7245 14.42L29.7645 14.46C30.2312 15.1 30.5445 15.7067 30.7045 16.28C30.7845 16.56 30.8579 16.7 30.9245 16.7C31.0045 16.7 31.0445 16.5467 31.0445 16.24V16.14C31.0312 15.4467 30.7512 14.8867 30.2045 14.46ZM30.4845 3.04C30.4845 2.81333 30.2912 2.50667 29.9045 2.12C29.5312 1.73333 29.1912 1.54 28.8845 1.54C28.8312 1.54 28.8045 1.56 28.8045 1.6C28.8045 1.66667 29.0445 1.92 29.5245 2.36C30.0712 2.88 30.3779 3.14 30.4445 3.14C30.4712 3.14 30.4845 3.10667 30.4845 3.04ZM22.4245 1.66C22.1979 1.19333 21.7979 0.959999 21.2245 0.959999C21.0512 0.959999 20.9245 0.973332 20.8445 0.999999C20.7245 1.04 20.6645 1.08 20.6645 1.12C20.6645 1.18667 20.7979 1.26 21.0645 1.34C21.5712 1.47333 21.9712 1.78 22.2645 2.26C22.3579 2.42 22.4379 2.5 22.5045 2.5C22.5712 2.5 22.6045 2.42667 22.6045 2.28C22.6045 2.10667 22.5445 1.9 22.4245 1.66ZM20.6045 0.619999C20.7512 0.593333 20.9779 0.579999 21.2845 0.579999C21.7779 0.579999 22.1512 0.646666 22.4045 0.779999C22.7512 0.966666 22.9245 1.36667 22.9245 1.98C22.9245 2.42 22.8312 3.12 22.6445 4.08C22.5112 4.76 22.4445 5.28 22.4445 5.64C22.4445 5.96 22.5045 6.16 22.6245 6.24C22.6379 6.25333 22.6645 6.26 22.7045 6.26C22.8379 6.26 23.0779 5.74667 23.4245 4.72C24.2912 2.2 25.1579 0.853333 26.0245 0.679999C26.2512 0.639999 26.4845 0.619999 26.7245 0.619999C27.9645 0.619999 29.0579 1.04 30.0045 1.88C30.5512 2.38667 30.8379 2.89333 30.8645 3.4C30.8645 3.85333 30.3045 4.71333 29.1845 5.98C28.2245 7.07333 27.5579 7.92667 27.1845 8.54C26.8112 9.14 26.6245 9.67333 26.6245 10.14C26.6245 10.6333 26.7979 11.08 27.1445 11.48C27.4912 11.8667 28.1112 12.3133 29.0045 12.82C30.2979 13.5533 31.0779 14.1533 31.3445 14.62C31.5045 14.8867 31.5845 15.16 31.5845 15.44C31.5845 15.4667 31.5779 15.5333 31.5645 15.64C31.5645 15.7467 31.5645 15.8333 31.5645 15.9C31.4845 17.22 30.8512 18.2 29.6645 18.84C29.3179 19.0267 28.8579 19.12 28.2845 19.12C27.8979 19.12 27.6245 19.1 27.4645 19.06C27.3045 19.0333 27.0979 18.9533 26.8445 18.82C26.3379 18.5533 25.7379 18.0267 25.0445 17.24C24.3512 16.4667 23.7645 15.7667 23.2845 15.14C22.8045 14.5 22.5445 14.18 22.5045 14.18C22.4912 14.18 22.4845 14.2067 22.4845 14.26C22.4845 14.4067 22.5312 14.7467 22.6245 15.28C22.7312 15.8133 22.8179 16.46 22.8845 17.22C22.9112 17.54 22.9245 17.7333 22.9245 17.8C22.9245 18.04 22.8645 18.3 22.7445 18.58C22.6512 18.7933 22.5512 18.94 22.4445 19.02C22.3512 19.1133 22.1512 19.2333 21.8445 19.38C21.4045 19.5933 20.8779 19.7267 20.2645 19.78C20.2112 19.78 20.1445 19.78 20.0645 19.78C19.9845 19.7933 19.9245 19.8 19.8845 19.8C18.5912 19.8 17.5845 19.4067 16.8645 18.62C16.6379 18.3667 16.4779 18.1133 16.3845 17.86C16.2912 17.62 16.2445 17.2867 16.2445 16.86C16.2445 16.4467 16.2845 15.8733 16.3645 15.14C16.4712 14.0067 16.5245 12.9267 16.5245 11.9C16.5245 10.2333 16.3912 8.56667 16.1245 6.9C15.8712 5.3 15.7445 4.18667 15.7445 3.56C15.7445 2.94667 15.8779 2.44667 16.1445 2.06C16.3179 1.80667 16.5512 1.61333 16.8445 1.48C17.0712 1.37333 17.5912 1.22667 18.4045 1.04C19.2179 0.853333 19.9512 0.713333 20.6045 0.619999Z" fill="black"/>
</svg>
